Iron.Man.3.2013.CAM.READNFO.XviD-AQOS

Format : AVI
Format/Info : Audio Video Interleave
File size : 1.20 GiB
Duration : 1h 58mn
Overall bit rate : 1 453 Kbps

Video
ID : 0
Format : MPEG-4 Visual
Format profile : Advanced Simple@L5
Format settings, BVOP : 1
Format settings, QPel : No
Format settings, GMC : No warppoints
Format settings, Matrix : Default (H.263)
Codec ID : XVID
Codec ID/Hint : XviD
Duration : 1h 58mn
Bit rate : 1 319 Kbps
Width : 656 pixels
Height : 272 pixels
Display aspect ratio : 2.40:1
Frame rate : 25.000 fps
Color space : YUV
Chroma subsampling : 4:2:0
Bit depth : 8 bits
Scan type : Progressive
Compression mode : Lossy
Bits/(Pixel*Frame) : 0.296
Stream size : 1.09 GiB (91%)
Writing library : XviD 1.2.1 (UTC 2008-12-04)

Audio
ID : 1
Format : MPEG Audio
Format version : Version 1
Format profile : Layer 3
Codec ID : 55
Codec ID/Hint : MP3
Duration : 1h 58mn
Bit rate mode : Constant
Bit rate : 128 Kbps
Channel(s) : 2 channels
Sampling rate : 44.1 KHz
Compression mode : Lossy
Stream size : 108 MiB (9%)
Alignment : Aligned on interleaves
Interleave, duration : 160 ms (4.00 video frames)
Interleave, preload duration : 208 ms
Title : i3 audio clean shit
Writing library : LAME3.99r
Encoding settings : -m s -V 4 -q 3 -lowpass 17 -b 128

SCREENSHOTS:

 
http://someimage.com/wM57DvW
 
http://someimage.com/LfgXcFH
 
http://someimage.com/hKMUMbC
 
http://someimage.com/UfYS3Ff
